####
#
# OBJ File Generated by Meshlab
#
####
# Object 49_C100_M.obj
#
# Vertices: 21
# Faces: 27
#
####
vn 2.303749 -5.842931 0.167047
v -8.712412 88.428496 -42.757054
vn 1.031213 -2.629417 0.088910
v -8.029650 88.666450 -43.638750
vn 0.844294 -2.055669 0.083000
v -6.742460 89.269900 -41.608400
vn 0.753886 -1.794641 0.078608
v -7.376910 89.104100 -39.565300
vn 2.386676 -5.808643 0.196917
v -8.572334 88.534797 -41.097987
vn 2.385531 -5.807341 0.147242
v -10.589298 87.692983 -43.627191
vn 1.190666 -2.759039 0.094481
v -11.253400 87.332500 -45.666350
vn 1.188427 -3.025571 0.114603
v -9.955970 87.897800 -44.787500
vn 2.568243 -5.731238 0.177834
v -13.218763 86.499934 -44.806318
vn 2.524287 -5.752148 0.092080
v -12.213808 87.016166 -42.241705
vn 1.286542 -3.000950 0.048267
v -11.585000 87.317200 -40.191500
vn 1.035096 -2.490257 0.069660
v -9.700810 88.122000 -39.388000
vn 1.103861 -2.404749 0.011751
v -13.620320 86.387545 -40.760912
vn 2.690715 -5.675498 0.151756
v -14.626293 85.862413 -44.432508
vn 1.070432 -2.383189 0.070939
v -13.322150 86.395150 -46.681150
vn 0.878019 -1.872022 0.038633
v -15.502500 85.410400 -46.421800
vn 0.996865 -2.036601 0.038271
v -16.229400 85.077000 -44.471500
vn 2.652280 -5.692895 0.105867
v -14.063538 86.175504 -42.976364
vn 1.220220 -2.519560 0.041383
v -15.312600 85.579050 -42.489350
vn 1.047179 -2.747536 0.076197
v -8.561470 88.450900 -44.071100
vn 2.370285 -5.817783 0.105275
v -10.200091 87.867318 -41.606281
# 21 vertices, 0 vertices normals

f 1//1 2//2 3//3
f 3//3 4//4 5//5
f 7//7 6//6 10//10
f 11//11 10//10 21//21
f 12//12 11//11 21//21
f 18//18 14//14 9//9
f 9//9 15//15 7//7
f 15//15 9//9 14//14
f 17//17 16//16 14//14
f 17//17 14//14 19//19
f 7//7 8//8 6//6
f 10//10 13//13 18//18
f 13//13 19//19 18//18
f 11//11 13//13 10//10
f 9//9 7//7 10//10
f 9//9 10//10 18//18
f 1//1 20//20 2//2
f 4//4 12//12 5//5
f 8//8 20//20 6//6
f 20//20 1//1 6//6
f 5//5 1//1 3//3
f 21//21 10//10 6//6
f 12//12 21//21 5//5
f 6//6 1//1 21//21
f 21//21 1//1 5//5
f 14//14 18//18 19//19
f 15//15 14//14 16//16
# 27 faces, 0 coords texture

# End of File
